<?xml version="1.0" standalone="no"?>
<!DOCTYPE svg PUBLIC "-//W3C//DTD SVG 20010904//EN"
 "http://www.w3.org/TR/2001/REC-SVG-20010904/DTD/svg10.dtd">
<svg version="1.0" xmlns="http://www.w3.org/2000/svg"
 width="512.000000pt" height="512.000000pt" viewBox="0 0 512.000000 512.000000"
 preserveAspectRatio="xMidYMid meet">

<g transform="translate(0.000000,512.000000) scale(0.100000,-0.100000)"
fill="#000000" stroke="none">
<path d="M253 5106 c-102 -32 -176 -97 -222 -196 l-26 -55 -3 -955 c-2 -707 1
-962 9 -983 20 -49 81 -69 134 -45 57 26 55 -12 55 985 l0 918 170 -170 170
-170 0 -1875 0 -1875 -170 -170 -170 -170 0 918 c0 997 2 959 -55 985 -53 24
-114 4 -134 -45 -8 -21 -11 -276 -9 -983 l3 -955 26 -56 c37 -79 90 -133 167
-171 l67 -33 2295 0 2295 0 67 33 c77 38 130 92 167 171 l26 56 0 2295 0 2295
-33 67 c-38 77 -92 130 -171 167 l-56 26 -2280 2 c-1866 1 -2288 -1 -2322 -11z
m4352 -356 l-170 -170 -1875 0 -1875 0 -170 170 -170 170 2215 0 2215 0 -170
-170z m315 -2192 l0 -2213 -165 165 -165 165 0 1885 0 1885 162 162 c90 90
164 163 165 163 2 0 3 -996 3 -2212z m-540 2 l0 -1820 -1820 0 -1820 0 0 1820
0 1820 1820 0 1820 0 0 -1820z m225 -2190 l170 -170 -2215 0 -2215 0 170 170
170 170 1875 0 1875 0 170 -170z"/>
<path d="M3249 3182 l-34 -30 -3 -574 c-2 -531 -1 -576 15 -608 29 -56 44 -60
287 -60 l218 0 34 34 c36 36 42 67 22 111 -21 47 -52 55 -223 55 l-155 0 0
519 0 520 -23 26 c-14 17 -36 28 -63 32 -36 5 -46 1 -75 -25z"/>
<path d="M2493 3182 c-13 -9 -27 -33 -33 -52 -11 -38 -14 -1075 -4 -1129 4
-17 18 -42 32 -56 l25 -25 270 0 271 0 28 27 c41 39 40 98 -3 139 l-30 29
-200 3 -199 4 0 169 0 169 175 0 c192 0 221 7 243 55 16 34 15 60 -2 94 -24
45 -52 51 -241 51 l-175 0 0 169 0 169 199 4 200 3 30 29 c42 40 43 97 4 138
l-27 28 -270 0 c-241 0 -273 -2 -293 -18z"/>
<path d="M1467 3179 c-46 -27 -47 -34 -47 -612 0 -362 4 -554 11 -575 20 -58
38 -62 253 -62 107 0 219 5 248 11 177 37 318 176 384 376 27 83 29 97 28 253
0 151 -2 172 -27 246 -61 185 -204 326 -368 363 -58 14 -459 14 -482 0z m466
-205 c136 -46 217 -199 217 -410 0 -161 -44 -279 -131 -358 -70 -63 -117 -76
-271 -76 l-128 0 0 430 0 430 133 0 c95 0 147 -5 180 -16z"/>
<path d="M51 2646 c-87 -48 -50 -186 49 -186 51 0 100 49 100 99 0 75 -83 124
-149 87z"/>
</g>
</svg>
