<?xml version="1.0" standalone="no"?>
<!DOCTYPE svg PUBLIC "-//W3C//DTD SVG 20010904//EN"
 "http://www.w3.org/TR/2001/REC-SVG-20010904/DTD/svg10.dtd">
<svg version="1.0" xmlns="http://www.w3.org/2000/svg"
 width="512.000000pt" height="512.000000pt" viewBox="0 0 512.000000 512.000000"
 preserveAspectRatio="xMidYMid meet">

<g transform="translate(0.000000,512.000000) scale(0.100000,-0.100000)"
fill="#000000" stroke="none">
<path d="M653 5106 c-181 -44 -334 -202 -372 -384 -16 -77 -15 -1112 1 -1147
13 -29 55 -55 88 -55 29 0 76 26 86 47 5 10 11 268 14 573 l5 555 28 57 c32
64 80 111 146 142 l46 21 1865 0 1865 0 46 -21 c66 -31 114 -78 146 -142 l28
-57 3 -1727 2 -1727 -357 -3 -358 -3 -75 -36 c-98 -46 -163 -111 -209 -209
l-36 -75 -3 -358 -3 -357 -1457 2 -1457 3 -57 28 c-64 32 -111 80 -142 146
-21 46 -21 54 -26 1166 -3 616 -9 1128 -14 1138 -10 21 -57 47 -85 47 -34 0
-72 -23 -87 -51 -12 -24 -14 -196 -14 -1128 0 -764 3 -1116 11 -1153 39 -187
200 -348 387 -387 75 -16 3054 -16 3085 0 31 16 1065 1048 1083 1081 12 23 14
279 14 1802 0 1257 -3 1790 -11 1828 -39 187 -200 348 -387 387 -81 17 -3728
14 -3799 -3z"/>
<path d="M3540 4205 c-30 -9 -75 -29 -100 -45 -25 -16 -575 -559 -1222 -1207
l-1178 -1178 -150 -560 c-82 -308 -150 -568 -150 -577 0 -31 23 -69 51 -84 42
-21 2206 -21 2248 0 28 15 51 53 51 87 0 28 -26 75 -47 85 -10 5 -334 11 -721
14 l-703 5 178 48 178 47 1183 1183 c650 650 1194 1201 1207 1224 67 112 71
257 11 378 -31 62 -63 98 -268 301 -205 202 -241 234 -297 258 -79 35 -189 43
-271 21z m198 -209 c15 -8 124 -113 244 -233 187 -189 218 -224 228 -262 14
-54 6 -103 -25 -156 -13 -22 -100 -116 -194 -210 l-171 -170 -327 328 -328
327 165 166 c91 91 178 175 194 186 66 48 150 58 214 24z m-933 -2046 l-875
-875 -327 328 -328 327 875 875 875 875 327 -327 328 -328 -875 -875z m-1078
-967 c-2 -1 -88 -25 -192 -53 l-189 -51 -133 133 c-83 83 -131 138 -129 148 3
8 26 95 52 193 l47 179 273 -273 c150 -150 272 -274 271 -276z"/>
<path d="M3074 2761 c-46 -34 -674 -665 -698 -701 -26 -40 -20 -78 18 -116 27
-27 42 -34 72 -34 37 0 51 12 406 368 355 354 368 369 368 405 0 49 -13 73
-50 92 -43 22 -72 19 -116 -14z"/>
<path d="M2099 1787 c-58 -45 -61 -116 -8 -161 72 -61 180 3 162 97 -12 59
-108 100 -154 64z"/>
<path d="M321 3166 c-87 -48 -50 -186 49 -186 51 0 100 49 100 99 0 75 -83
124 -149 87z"/>
</g>
</svg>
