<?xml version="1.0" standalone="no"?>
<!DOCTYPE svg PUBLIC "-//W3C//DTD SVG 20010904//EN"
 "http://www.w3.org/TR/2001/REC-SVG-20010904/DTD/svg10.dtd">
<svg version="1.0" xmlns="http://www.w3.org/2000/svg"
 width="512.000000pt" height="512.000000pt" viewBox="0 0 512.000000 512.000000"
 preserveAspectRatio="xMidYMid meet">

<g transform="translate(0.000000,512.000000) scale(0.100000,-0.100000)"
fill="#000000" stroke="none">
<path d="M470 5104 c-221 -47 -408 -236 -455 -459 -22 -105 -22 -4065 0 -4170
47 -225 235 -413 460 -460 105 -22 4065 -22 4170 0 225 47 413 235 460 460 22
105 22 4065 0 4170 -47 225 -235 413 -460 460 -102 21 -4075 21 -4175 -1z
m4153 -414 c21 -14 50 -43 65 -64 l27 -39 0 -2027 0 -2026 -25 -37 c-14 -21
-43 -50 -64 -65 l-39 -27 -2027 0 -2027 0 -39 27 c-21 15 -50 44 -64 65 l-25
37 -3 2004 c-1 1338 1 2017 8 2042 12 46 80 116 124 129 18 6 854 9 2042 8
l2010 -2 37 -25z"/>
<path d="M3690 3549 c-27 -8 -204 -179 -782 -757 l-748 -747 -347 347 c-311
310 -353 347 -393 358 -159 42 -292 -91 -250 -250 11 -41 54 -87 433 -468 232
-233 438 -433 457 -445 49 -31 151 -31 200 0 19 12 405 392 857 845 752 754
822 827 833 868 34 128 -45 246 -171 255 -30 3 -70 0 -89 -6z"/>
</g>
</svg>
